<?xml version="1.0" encoding="UTF-8" standalone="no"?>
<!-- Created with Inkscape (http://www.inkscape.org/) -->

<svg
   width="255mm"
   height="255mm"
   viewBox="0 0 963.7795 963.7795"
   version="1.1"
   id="svg5"
   inkscape:version="1.1.2 (0a00cf5339, 2022-02-04)"
   sodipodi:docname="facilitation.svg"
   xmlns:inkscape="http://www.inkscape.org/namespaces/inkscape"
   xmlns:sodipodi="http://sodipodi.sourceforge.net/DTD/sodipodi-0.dtd"
   xmlns="http://www.w3.org/2000/svg"
   xmlns:svg="http://www.w3.org/2000/svg">
  <sodipodi:namedview
     id="namedview7"
     pagecolor="#ffffff"
     bordercolor="#666666"
     borderopacity="1.0"
     inkscape:pageshadow="2"
     inkscape:pageopacity="0.0"
     inkscape:pagecheckerboard="0"
     inkscape:document-units="mm"
     showgrid="false"
     inkscape:zoom="0.35355339"
     inkscape:cx="774.98903"
     inkscape:cy="944.69466"
     inkscape:window-width="1904"
     inkscape:window-height="995"
     inkscape:window-x="1208"
     inkscape:window-y="645"
     inkscape:window-maximized="0"
     inkscape:current-layer="layer2" />
  <defs
     id="defs2" />
  <g
     inkscape:label="Layer 1"
     inkscape:groupmode="layer"
     id="layer1" />
  <g
     inkscape:groupmode="layer"
     id="layer2"
     inkscape:label="Layer 2">
    <path
       id="path3790"
       style="fill:#000000;fill-opacity:1;stroke-width:2.05126"
       d="m 441.1784,19.173295 c -57.34487,0.28329 -94.22228,60.982068 -68.7689,113.192015 5.89576,12.09304 22.55411,28.68693 34.78646,34.65244 16.66225,8.1259 36.46261,10.50442 52.82435,6.34547 28.14936,-7.15543 50.82607,-29.03941 57.84778,-55.82469 5.59216,-21.332367 1.47721,-45.599485 -10.88516,-64.194865 -14.79766,-22.25894 -37.99977,-34.30801 -65.80453,-34.17037 z M 763.86373,124.39875 c -0.46275,0 -8.25841,7.8745 -17.32214,17.497 l -16.47891,17.49536 6.53503,6.75074 6.53338,6.74909 17.14075,-17.79441 17.14075,-17.79441 -6.35363,-6.45169 c -3.49475,-3.54809 -6.73246,-6.45168 -7.19523,-6.45168 z m -49.68512,38.07276 c -2.0522,-0.0969 -4.18726,0.20368 -7.33904,0.85794 -8.64139,1.79404 -4.54995,-1.49623 -54.64481,43.94921 -29.8948,27.12028 -37.8194,33.65956 -39.64319,32.71433 -1.25374,-0.64964 -26.43598,-11.67465 -55.96033,-24.50102 l -53.68065,-23.32116 -72.96544,-0.40037 c -82.80625,-0.45415 -85.3822,-0.22543 -103.49652,9.19871 -39.15382,20.36995 -83.40074,64.17136 -117.9507,128.98785 -11.27484,21.15184 9.95105,160.46514 12.59123,169.56415 3.48777,12.02454 15.47621,20.8454 28.32987,20.8454 6.17269,0 15.30018,-4.71284 19.87307,-10.26091 6.67052,-8.09247 8.23424,-11.63504 6.64615,-50.09694 -2.22132,-53.7921 -24.71317,-81.59607 7.88811,-126.45 8.0099,-11.02029 42.77342,-49.6821 45.27288,-53.48619 4.96187,137.87341 -23.57064,186.94649 -13.45894,226.0156 l -15.54661,152.73211 -93.18581,188.72071 c -15.73003,55.71603 63.62687,74.71253 89.6241,24.82133 l 67.55799,-134.47374 60.07515,-163.02586 97.60209,126.83238 -40.96359,173.10702 c -16.76877,53.3563 52.38728,87.0026 89.97217,54.4553 8.52302,-6.4287 49.6391,-231.56268 38.67414,-248.37666 -13.12287,-31.46013 -74.72429,-139.91287 -108.29117,-212.69138 4.97416,-28.28172 6.24648,-87.20584 20.87645,-206.52731 1.29167,0.37927 21.97557,9.29716 45.96414,19.81751 49.17632,21.56643 53.80901,22.80775 64.01675,17.15219 3.10254,-1.71896 27.41108,-22.752 54.01893,-46.74036 51.99989,-46.88116 54.05161,-49.21457 54.05161,-61.4789 0,-12.42968 -7.26483,-22.49281 -19.06742,-26.41299 -2.81824,-0.9361 -4.78842,-1.43107 -6.84061,-1.52795 z"
       sodipodi:nodetypes="ccsccccscccccccsscscccccscsccsccccccccccccccscsss" />
  </g>
</svg>
